# Wavefront Obj file
# 
# verts: 86 uv-s: 125
mtllib Monitor.mtl

g Monitor

v 0.705772 3.397808 -3.603030
v 0.705772 4.399082 -3.603030
v 0.705772 4.399082 -3.635578
v 0.705772 3.397808 -3.635578
v 0.660359 3.428292 -3.603030
v 0.660359 4.368598 -3.603030
v 0.643174 3.439827 -3.607772
v 0.643174 4.357063 -3.607772
v 0.062020 4.399082 -3.635578
v 0.062020 3.397808 -3.635578
v 0.062020 3.397808 -3.603030
v 0.055805 3.428292 -3.603030
v 0.053454 3.439827 -3.607771
v 0.053454 4.357063 -3.607771
v 0.055805 4.368598 -3.603030
v 0.062020 4.399082 -3.603030
v -0.068473 4.399082 -3.603029
v -0.068473 4.399082 -3.635579
v -0.068473 3.397808 -3.635579
v -0.068473 3.397808 -3.603029
v -0.068473 3.428292 -3.603029
v -0.068473 3.439827 -3.607771
v -0.068473 4.357063 -3.607771
v -0.068473 4.368598 -3.603029
v -0.842718 3.397808 -3.603029
v -0.842718 4.399082 -3.603029
v -0.842718 4.399082 -3.635579
v -0.842718 3.397808 -3.635579
v -0.797304 3.428292 -3.603030
v -0.797304 4.368598 -3.603030
v -0.780120 3.439827 -3.607772
v -0.780120 4.357063 -3.607772
v -0.198966 4.399082 -3.635579
v -0.198966 3.397808 -3.635579
v -0.198966 3.397808 -3.603029
v -0.192752 3.428292 -3.603030
v -0.190400 3.439827 -3.607771
v -0.190400 4.357063 -3.607771
v -0.192752 4.368598 -3.603030
v -0.198966 4.399082 -3.603029
v 0.062020 3.843634 -3.635578
v -0.068473 3.843634 -3.635579
v -0.198966 3.843634 -3.635579
v -0.842718 3.843634 -3.635579
v -0.842718 3.843634 -3.603029
v -0.797305 3.846971 -3.603030
v -0.780120 3.848235 -3.607772
v -0.190400 3.848235 -3.607771
v -0.068473 3.848235 -3.607771
v 0.053454 3.848235 -3.607771
v 0.643174 3.848235 -3.607772
v 0.660359 3.846971 -3.603030
v 0.705772 3.843634 -3.603030
v 0.705772 3.843634 -3.635578
v 0.062020 3.626853 -3.635578
v -0.068473 3.626853 -3.635579
v -0.198966 3.626853 -3.635579
v -0.842718 3.626853 -3.635579
v -0.842718 3.626853 -3.603029
v -0.797305 3.643390 -3.603030
v -0.780120 3.649648 -3.607772
v -0.190400 3.649648 -3.607771
v -0.068473 3.649648 -3.607771
v 0.053454 3.649648 -3.607771
v 0.643174 3.649648 -3.607772
v 0.660359 3.643390 -3.603030
v 0.705772 3.626853 -3.603030
v 0.705772 3.626853 -3.635578
v -0.068473 3.817393 -3.723264
v -0.068473 3.653094 -3.723264
v 0.030429 3.817393 -3.723264
v 0.030429 3.653094 -3.723264
v -0.167374 3.653094 -3.723264
v -0.167374 3.817393 -3.723264
v -0.068473 3.766621 -3.871803
v -0.068473 3.643589 -3.762911
v 0.030429 3.766621 -3.871803
v 0.030429 3.643589 -3.762911
v -0.167374 3.643589 -3.762911
v -0.167374 3.766621 -3.871803
v -0.068473 2.691572 -3.871803
v -0.068473 2.691571 -3.762911
v 0.030429 2.691572 -3.871803
v 0.030429 2.691571 -3.762911
v -0.167374 2.691571 -3.762911
v -0.167374 2.691572 -3.871803
# 86 positions

vt 0.024527 0.718073
vt 0.010559 0.718200
vt 0.007874 0.472153
vt 0.021893 0.471859
vt 0.042587 0.485482
vt 0.045002 0.716163
vt 0.050644 0.490892
vt 0.053066 0.715350
vt 0.315452 0.458750
vt 0.021101 0.457872
vt 0.026455 0.203985
vt 0.320812 0.208933
vt 0.311863 0.916894
vt 0.311441 0.930697
vt 0.016895 0.921023
vt 0.024876 0.909606
vt 0.315161 0.903986
vt 0.045227 0.896967
vt 0.316624 0.898822
vt 0.053188 0.891811
vt 0.318950 0.490569
vt 0.319712 0.716957
vt 0.053066 0.715350
vt 0.050644 0.490892
vt 0.042269 0.485533
vt 0.317626 0.485404
vt 0.318950 0.490569
vt 0.020948 0.471992
vt 0.314899 0.472501
vt 0.376812 0.459516
vt 0.376623 0.473117
vt 0.381126 0.210076
vt 0.374800 0.915653
vt 0.374809 0.929064
vt 0.374803 0.903088
vt 0.374819 0.898008
vt 0.376442 0.490886
vt 0.375119 0.717095
vt 0.376485 0.485771
vt 0.376442 0.490886
vt 0.724055 0.719997
vt 0.728502 0.476975
vt 0.742486 0.477242
vt 0.738036 0.720142
vt 0.703558 0.718100
vt 0.707923 0.490654
vt 0.695464 0.717300
vt 0.699836 0.496075
vt 0.438205 0.459665
vt 0.441450 0.210797
vt 0.733289 0.216163
vt 0.729819 0.463874
vt 0.437632 0.916592
vt 0.723391 0.910707
vt 0.731327 0.922148
vt 0.438014 0.930403
vt 0.434374 0.903675
vt 0.703115 0.897983
vt 0.432929 0.898504
vt 0.695167 0.892784
vt 0.433959 0.491432
vt 0.699836 0.496075
vt 0.695464 0.717300
vt 0.430528 0.717377
vt 0.708292 0.490879
vt 0.433959 0.491432
vt 0.435376 0.486280
vt 0.729721 0.477869
vt 0.438384 0.473422
vt 0.443755 0.114048
vt 0.735795 0.120136
vt 0.725984 0.814247
vt 0.739782 0.815044
vt 0.704875 0.806104
vt 0.696774 0.802635
vt 0.696774 0.802635
vt 0.430761 0.805261
vt 0.374857 0.805258
vt 0.318996 0.805105
vt 0.051580 0.801280
vt 0.043510 0.804760
vt 0.051580 0.801280
vt 0.022520 0.812907
vt 0.008759 0.813618
vt 0.028494 0.106493
vt 0.322956 0.111804
vt 0.385684 0.011150
vt 0.383451 0.112668
vt 0.325270 0.009375
vt 0.445942 0.011987
vt 0.738505 0.018049
vt 0.695167 0.892784
vt 0.432929 0.898504
vt 0.374819 0.898008
vt 0.316624 0.898822
vt 0.053188 0.891811
vt 0.030426 0.003490
vt 0.956799 0.457460
vt 0.983755 0.481364
vt 0.965512 0.490551
vt 0.946572 0.471405
vt 0.985313 0.525755
vt 0.965414 0.533159
vt 0.998008 0.550966
vt 0.979335 0.554387
vt 0.854345 0.444723
vt 0.882124 0.447323
vt 0.881571 0.469719
vt 0.855197 0.462718
vt 0.925780 0.438864
vt 0.921948 0.458044
vt 0.944533 0.509404
vt 0.926902 0.496691
vt 0.957686 0.538037
vt 0.971507 0.557534
vt 0.878862 0.478878
vt 0.857453 0.470776
vt 0.910889 0.482682
vt 0.810770 0.689271
vt 0.791438 0.675240
vt 0.829792 0.704134
vt 0.848442 0.718459
vt 0.753244 0.646091
vt 0.734653 0.632090
vt 0.772625 0.660506
# 125 texture coordinates

vn 0.590505 0.000000 0.807034
vn 0.050496 0.000000 -0.998724
vn 0.050409 0.058423 -0.997018
vn 0.501366 0.581072 0.641083
vn -0.022092 -0.016130 0.999626
vn -0.073363 0.000000 0.997305
vn -0.010202 -0.013857 0.999852
vn -0.007962 0.000000 0.999968
vn 0.000001 0.058498 -0.998288
vn 0.027130 0.015601 -0.999510
vn 0.000001 -0.701442 0.712727
vn 0.000001 -0.140690 -0.990054
vn 0.049995 -0.140514 -0.988816
vn 0.284415 -0.799373 0.529256
vn 0.000001 0.125695 0.992069
vn -0.013337 0.023613 0.999632
vn 0.000001 0.019827 0.999803
vn -0.009730 0.032050 0.999439
vn 0.000001 -0.008416 0.999965
vn 0.000001 0.000000 1.000000
vn 0.000001 -0.125694 0.992069
vn 0.000001 0.701444 0.712724
vn 0.000003 0.058501 -0.998287
vn 0.000001 0.729884 0.683571
vn 0.000003 0.149058 -0.988828
vn 0.000001 -0.729881 0.683574
vn 0.000003 -0.140697 -0.990053
vn 0.000001 0.112141 0.993692
vn 0.000000 0.021416 0.999771
vn 0.000000 -0.009112 0.999959
vn 0.000000 0.000000 1.000000
vn 0.000001 -0.112140 0.993692
vn -0.590515 -0.000000 0.807027
vn -0.501369 0.581079 0.641074
vn -0.050412 0.058426 -0.997018
vn -0.050498 0.000000 -0.998724
vn 0.073379 -0.000000 0.997304
vn 0.022101 -0.016144 0.999625
vn 0.007962 -0.000000 0.999968
vn 0.010202 -0.013857 0.999852
vn 0.000000 0.058501 -0.998287
vn -0.027129 0.015601 -0.999510
vn -0.000000 -0.701454 0.712715
vn -0.284416 -0.799381 0.529243
vn -0.049997 -0.140521 -0.988815
vn 0.000000 -0.140697 -0.990053
vn -0.000001 0.125715 0.992067
vn 0.013342 0.023633 0.999632
vn -0.000001 0.019826 0.999803
vn 0.009730 0.032050 0.999439
vn -0.000001 -0.008415 0.999965
vn -0.000001 0.000000 1.000000
vn -0.000001 -0.125714 0.992067
vn -0.000000 0.701456 0.712713
vn -0.048158 -0.027694 -0.998456
vn -0.050498 0.000000 -0.998724
vn -0.580207 0.000000 0.814469
vn 0.076209 0.000000 0.997092
vn 0.007767 0.000000 0.999970
vn -0.000001 0.000000 1.000000
vn 0.000000 0.000000 1.000000
vn 0.000001 0.000000 1.000000
vn -0.007767 0.000000 0.999970
vn -0.076192 0.000000 0.997093
vn 0.580197 0.000000 0.814476
vn 0.050496 0.000000 -0.998724
vn 0.048159 -0.027695 -0.998456
vn 0.000002 -0.324850 -0.945766
vn 0.781021 0.543479 -0.307630
vn 0.000000 0.950750 -0.309959
vn 0.826219 -0.488294 -0.280946
vn 0.000000 -0.991473 -0.130313
vn -0.826218 -0.488291 -0.280954
vn -0.781022 0.543476 -0.307634
vn 0.538686 0.110204 -0.835268
vn 0.000000 0.130805 -0.991408
vn 0.869154 -0.020374 0.494121
vn 0.000000 -0.041198 0.999151
vn -0.869157 -0.020374 0.494117
vn -0.538690 0.110204 -0.835265
vn 0.740250 0.000000 -0.672332
vn 0.000000 0.000000 -1.000000
vn 0.740245 0.000000 0.672337
vn 0.000000 0.000000 1.000000
vn -0.740249 0.000000 0.672333
vn -0.740253 0.000000 -0.672328
# 86 normals

usemtl initialShadingGroup
f 53/1/1 54/2/2 3/3/3 2/4/4
f 53/1/1 2/4/4 6/5/5 52/6/6
f 52/6/6 6/5/5 8/7/7 51/8/8
f 9/9/9 3/10/3 54/11/2 41/12/10
f 11/13/11 10/14/12 4/15/13 1/16/14
f 12/17/15 11/13/11 1/16/14 5/18/16
f 13/19/17 12/17/15 5/18/16 7/20/18

usemtl lambert7SG
f 14/21/19 50/22/20 51/23/8 8/24/7

usemtl initialShadingGroup
f 6/25/5 15/26/21 14/27/19 8/7/7
f 2/28/4 16/29/22 15/26/21 6/25/5
f 9/9/9 16/29/22 2/28/4 3/10/3
f 18/30/23 17/31/24 16/29/22 9/9/9
f 42/32/25 18/30/23 9/9/9 41/12/10
f 20/33/26 19/34/27 10/14/12 11/13/11
f 21/35/28 20/33/26 11/13/11 12/17/15
f 22/36/29 21/35/28 12/17/15 13/19/17

usemtl lambert7SG
f 23/37/30 49/38/31 50/22/20 14/21/19

usemtl initialShadingGroup
f 15/26/21 24/39/32 23/40/30 14/27/19
f 16/29/22 17/31/24 24/39/32 15/26/21
f 45/41/33 26/42/34 27/43/35 44/44/36
f 45/41/33 46/45/37 30/46/38 26/42/34
f 46/45/37 47/47/39 32/48/40 30/46/38
f 33/49/41 43/50/42 44/51/36 27/52/35
f 35/53/43 25/54/44 28/55/45 34/56/46
f 36/57/47 29/58/48 25/54/44 35/53/43
f 37/59/49 31/60/50 29/58/48 36/57/47

usemtl lambert7SG
f 38/61/51 32/62/40 47/63/39 48/64/52

usemtl initialShadingGroup
f 30/65/38 32/48/40 38/66/51 39/67/53
f 26/68/34 30/65/38 39/67/53 40/69/54
f 33/49/41 27/52/35 26/68/34 40/69/54
f 18/30/23 33/49/41 40/69/54 17/31/24
f 42/32/25 43/50/42 33/49/41 18/30/23
f 20/33/26 35/53/43 34/56/46 19/34/27
f 21/35/28 36/57/47 35/53/43 20/33/26
f 22/36/29 37/59/49 36/57/47 21/35/28

usemtl lambert7SG
f 23/37/30 38/61/51 48/64/52 49/38/31

usemtl initialShadingGroup
f 39/67/53 38/66/51 23/40/30 24/39/32
f 40/69/54 39/67/53 24/39/32 17/31/24
f 44/51/36 43/50/42 57/70/55 58/71/56
f 59/72/57 45/41/33 44/44/36 58/73/56
f 59/72/57 60/74/58 46/45/37 45/41/33
f 60/74/58 61/75/59 47/47/39 46/45/37

usemtl lambert7SG
f 48/64/52 47/63/39 61/76/59 62/77/60
f 49/38/31 48/64/52 62/77/60 63/78/61
f 50/22/20 49/38/31 63/78/61 64/79/62
f 51/23/8 50/22/20 64/79/62 65/80/63

usemtl initialShadingGroup
f 66/81/64 52/6/6 51/8/8 65/82/63
f 67/83/65 53/1/1 52/6/6 66/81/64
f 67/83/65 68/84/66 54/2/2 53/1/1
f 41/12/10 54/11/2 68/85/66 55/86/67
f 19/87/27 56/88/68 55/86/67 10/89/12
f 19/87/27 34/90/46 57/70/55 56/88/68
f 58/71/56 57/70/55 34/90/46 28/91/45
f 25/54/44 59/72/57 58/73/56 28/55/45
f 25/54/44 29/58/48 60/74/58 59/72/57
f 29/58/48 31/60/50 61/75/59 60/74/58

usemtl lambert7SG
f 62/77/60 61/76/59 31/92/50 37/93/49
f 63/78/61 62/77/60 37/93/49 22/94/29
f 64/79/62 63/78/61 22/94/29 13/95/17
f 65/80/63 64/79/62 13/95/17 7/96/18

usemtl initialShadingGroup
f 5/18/16 66/81/64 65/82/63 7/20/18
f 1/16/14 67/83/65 66/81/64 5/18/16
f 1/16/14 4/15/13 68/84/66 67/83/65
f 55/86/67 68/85/66 4/97/13 10/89/12
f 42/98/25 41/99/10 71/100/69 69/101/70
f 41/99/10 55/102/67 72/103/71 71/100/69
f 55/102/67 56/104/68 70/105/72 72/103/71
f 56/106/68 57/107/55 73/108/73 70/109/72
f 57/107/55 43/110/42 74/111/74 73/108/73
f 43/110/42 42/98/25 69/101/70 74/111/74
f 69/101/70 71/100/69 77/112/75 75/113/76
f 71/100/69 72/103/71 78/114/77 77/112/75
f 72/103/71 70/105/72 76/115/78 78/114/77
f 70/109/72 73/108/73 79/116/79 76/117/78
f 73/108/73 74/111/74 80/118/80 79/116/79
f 74/111/74 69/101/70 75/113/76 80/118/80
f 75/113/76 77/112/75 83/119/81 81/120/82
f 77/112/75 78/114/77 84/121/83 83/119/81
f 78/114/77 76/115/78 82/122/84 84/121/83
f 76/117/78 79/116/79 85/123/85 82/124/84
f 79/116/79 80/118/80 86/125/86 85/123/85
f 80/118/80 75/113/76 81/120/82 86/125/86

# 82 faces
